<svg height="512" viewBox="0 0 128 128" width="512" xmlns="http://www.w3.org/2000/svg"><g><path d="m66.314 26.537h-11.4v12.239h23.639a12.24 12.24 0 0 0 -12.239-12.239z" fill="#b5dbfd"/><path d="m47.139 27.557h7.777v6.374h-7.777z" fill="#eb77b7"/><path d="m58.575 38.776h16.319v6.128h-16.319z" fill="#7295fc"/><path d="m74.686 101.463h-17.708a7.008 7.008 0 0 1 -6.74-8.927l6.179-21.7a56.453 56.453 0 0 0 2.158-15.461v-10.475h16.319a56.466 56.466 0 0 1 6.8 26.862v22.693a7.008 7.008 0 0 1 -7.008 7.008z" fill="#7faafc"/><path d="m46.307 51.398h5.099l3.51-17.466h-5.099z" fill="#b5dbfd"/></g></svg>